<svg width="18" height="18" viewBox="0 0 18 18" fill="none" xmlns="http://www.w3.org/2000/svg">
<path d="M17.9775 9.94348L16.0125 2.076C16.0125 2.07526 16.0125 2.07526 16.0125 2.07449C15.7598 1.07324 14.8628 0.375 13.8307 0.375H13.83H4.17076H4.17002C3.13801 0.375 2.24104 1.07324 1.98826 2.076L0.0232383 9.94348C0.00748828 10.0028 0 10.0635 0 10.125V15.375C0 16.6155 1.00951 17.625 2.25 17.625H15.75C16.9905 17.625 18 16.6155 18 15.375V10.125C18 10.0635 17.9925 10.0028 17.9775 9.94348ZM3.4425 2.4405C3.52649 2.1075 3.82574 1.87501 4.16999 1.87501H13.83C14.1735 1.87501 14.472 2.1075 14.5567 2.43976L15.6315 6.7425H12C11.586 6.7425 11.25 7.07849 11.25 7.49249C11.25 8.73298 10.2405 9.74249 9 9.74249C7.75951 9.74249 6.75 8.73298 6.75 7.49249C6.75 7.07849 6.41401 6.7425 6.00001 6.7425H2.36774L3.4425 2.4405ZM16.5 15.375C16.5 15.7882 16.1632 16.125 15.75 16.125H2.25C1.83674 16.125 1.50001 15.7882 1.50001 15.375V10.2172L1.9935 8.24248H5.32575C5.67376 9.95174 7.18949 11.2425 9 11.2425C10.8105 11.2425 12.3262 9.95171 12.6742 8.24248H16.0065L16.5 10.2172V15.375Z" fill="#FFBF21"/>
</svg>
